<?xml version="1.0" encoding="iso-8859-1"?>
<!-- Uploaded to: SVG Repo, www.svgrepo.com, Generator: SVG Repo Mixer Tools -->
<svg fill="#000000" height="800px" width="800px" version="1.1" id="Capa_1" xmlns="http://www.w3.org/2000/svg" xmlns:xlink="http://www.w3.org/1999/xlink" 
	 viewBox="0 0 491.057 491.057" xml:space="preserve">
<g>
	<g>
		<path d="M3.357,359.713l-0.1,1v1.7v3.3l0.1,6.7l1,8.2l0.5,4.1l0.8,3.8l1.7,7.6c0.8,2.5,1.6,4.9,2.4,7.4
			c6.7,19.8,19.5,37.4,35.5,50.9c16.4,13.1,36.3,22.3,57.1,24.6c6.5,1.5,13.1,1.9,19.7,2.4c0.2,0,0.4,0,0.6,0
			c9.5,0.4,17.5-7,17.9-16.5l0.1-2.1l0.4-9.5c1.7-55.8,2.2-111.6-1.9-167.1c-1.2-15.8-5.8-28.9-14.8-27.7c-2.8,0.4-5.3,2-7.5,4.4
			c-1.3-0.7-2.6-1.3-4.1-1.8c-11.8-4-26.9-4.2-41.4,0.5c-11.1,3.5-22.1,9.7-31.4,18.1c0.3-9.8-1-19.7,0.3-29.5
			c0.1-0.8-3.4-2.1-5.8-2.5c-4.9-0.8-9,0.2-12.1,1.8c-10.3,5.1-14.8,11.3-16,17.7c-2.9,15.2-7.3,30.5-4,45.8
			c-0.4,1.9-0.8,3.8-1.1,5.7c-1.7,12-2.2,24,1.9,36c0.1,0.4,0.3,0.8,0.6,1.2l-0.2,1.7L3.357,359.713z M39.957,360.313l0.1-0.8
			l0.1-1.6c0.2-2.1,0.2-4.3,0.5-6.4l1-6.4c1.7-8.4,4.6-16.5,8.6-24.1c4.1-7.6,9.5-14.4,15.7-20.4s13.5-10.9,21.3-14.4l2.9-1.4l3-1.1
			c2.1-0.6,4-1.6,6.1-2l6.3-1.5l4.4-0.5c-0.4,2.3-0.8,4.8-0.9,7.4c-1.7,29.1-3.6,58.4-3.4,87.6c0.2,24.3,0.8,48.5,1.6,72.8
			c-10-1.3-19.9-4.3-29-9.1c-7.4-5.6-13.6-12.5-19-19.5c-5.4-7.1-9.8-14.8-12.9-23c-0.9-2-1.6-4-2.2-6.1c-0.6-2.1-1.4-4.1-1.8-6.2
			l-1.4-6.3c-0.2-1.9-0.4-3.8-0.7-5.6l-0.2-1.4l-0.1-2l-0.1-4l-0.1-3.6L39.957,360.313z"/>
		<path d="M479.257,199.313l-1.6-7.6l-3.3-15.3l-4.8-15l-2.5-7.5l-3.2-7.2c-2.1-4.8-4.3-9.6-6.5-14.4l-7.9-13.7
			c-1.4-2.3-2.6-4.6-4.1-6.8l-4.7-6.4c-3.2-4.2-6.2-8.6-9.6-12.6c-22-25.9-49.6-46.8-80.3-60.9l-11.4-5.3c-3.9-1.5-8-2.8-11.9-4.1
			c-4-1.3-7.9-2.8-12-3.9l-12.3-3c-4.1-0.8-8-2.1-12.4-2.6l-12.8-1.7c-8.8-1.4-16.4-1.3-24.4-1.6c-30.2-3.9-61.2-1-90.8,8.6
			c-29.4,9.6-57,25.6-80.4,46.4s-42.5,46.2-56.3,74.3c-3.4,7.1-6.9,14-9.3,21.5c-2.7,7.4-5.6,14.6-7.3,22.2
			c-1.9,7.6-4.3,14.9-5.3,23.1l-1.9,12l-0.9,6l-0.4,5.4c-0.4,5.1,2.7,13.3,5,15.9c4.6,5.2,9.1-1,12.7-10.6c1.6-3.9,2.7-8,4.4-12.1
			c1.7-4,3.4-8.1,5-12.2c0.8-2,1.5-4,2.3-6.1c0.8-2,1.9-4.1,2.8-6.1c1.9-4.1,3.7-8.2,5.4-12.3c1.7-4.2,4.1-8.1,6-12.2
			c2.2-4,3.7-8.3,6.3-12.2c2.3-4,4.6-8,6.8-12c1-2.1,2.3-4,3.6-5.9l3.8-5.8l4.6-7c1.5-2.3,3.4-4.4,5.1-6.6l5.2-6.5
			c1.7-2.2,3.4-4.4,5.5-6.3l11.6-11.9l12.7-10.7c17.4-13.6,36.7-24.6,57.1-32.6s42.1-12.1,63.8-13.9l8.2-0.4l4.1-0.2l2.1-0.1h0.1
			l0,0h1.1l17.9,0.7c3.2,0,5.6,0.5,8.2,0.8l7.8,1c2.6,0.4,5.2,0.5,7.9,1l8.1,1.8c10.6,2.6,20.5,7.2,30.6,11.3l11.5,5.9
			c1.9,1,3.9,1.9,5.7,2.9l5.4,3.5l10.9,6.9l10.2,7.9l5.1,3.9c1.6,1.4,3.1,2.9,4.7,4.3l9.4,8.7c3,3,5.7,6.3,8.7,9.5
			c2.9,3.1,5.9,6.2,8.3,9.8c21,26.9,36.7,58.2,43.9,92c1,4.8,2.3,9.4,3.6,13.6c0.9,4.2,2.1,8,3.5,11.2c2.8,6.4,6.4,10.3,10.9,9.5
			c4.1-0.7,7.5-4.9,9.8-11.9c1.1-3.5,2.1-7.8,2.6-12.6c0.1-4.8-0.1-10.1-0.7-15.9L479.257,199.313z"/>
		<path d="M484.957,253.313c-4.9-0.8-9,0.2-12.1,1.8c-10.3,5.1-14.8,11.3-16,17.7c-0.5,2.7-1.1,5.4-1.6,8.2
			c-1.2-1.2-2.3-2.4-3.5-3.5c-9.2-8.7-19.9-15.9-31.4-21.3l-4.3-2.1l-4.5-1.7c-3-1-5.9-2.4-9-3.2l-9.2-2.5
			c-3.3-0.6-6.8-1.2-10.2-1.8c-1.1-0.2-2.8-0.3-3.9,0.1c-1.1,0.3-2.3,0.7-3.4,1.3c-2.2,1.1-4.3,2.4-5.3,3.6
			c-3.9,4.7,0.7,9.1,7.7,12.5c23.3,12.5,44.3,28,59.3,48.8c5.9,8.2,10.3,17.3,13.1,26.9c-0.2,7.4,0.6,14.9,3.1,22.3
			c0,0.1,0.1,0.2,0.2,0.3v3.4v1.4v0.3v0.4l-0.3,3.3l-0.6,6.6l-1.1,4.8l-0.5,2.4l-0.8,2.6l-1.6,5.2l-2.1,5.1
			c-5.4,13.5-14.8,25.1-25.7,34.4c-9.9,7.8-21.2,14-33.5,17.5c1.4-52.1,1.6-104.3-2.2-156.2c-1.2-15.8-5.8-28.9-14.8-27.7
			c-8.3,1.1-14.4,12.3-15.3,28.5c-1.7,29.1-3.6,58.4-3.4,87.6c0.2,29.4,1.1,58.8,2,88.2v1v0.1c0.3,7.7,6.8,13.7,14.5,13.4
			c20-0.8,39.8-6.4,56.7-16.7c11.1-4.4,21.3-11.4,30.3-19.7c9-8.3,16.7-18.4,22.4-29.6c1.6-2.7,2.8-5.6,3.9-8.6
			c1.1-2.9,2.5-5.8,3.3-8.9c0.9-3,1.8-6.1,2.6-9.2c0.6-3.4,1.2-6.7,1.7-10.1l0.4-2.5l0.1-2l0.3-4l0.3-4l0.1-1.5v-0.6v-1.2l-0.1-2.4
			c-0.2-3.2-0.2-6.4-0.6-9.5l-1.4-9.5c-0.4-1.9-0.9-3.8-1.4-5.7c-0.6-8.9-2.3-17.7-3.4-26.5c11.5-18.1,4.9-36.7,7.3-55
			C490.857,255.013,487.357,253.813,484.957,253.313z"/>
	</g>
</g>
</svg>