<?xml version="1.0" standalone="no"?>
<!DOCTYPE svg PUBLIC "-//W3C//DTD SVG 20010904//EN"
 "http://www.w3.org/TR/2001/REC-SVG-20010904/DTD/svg10.dtd">
<svg version="1.0" xmlns="http://www.w3.org/2000/svg"
 width="626.000000pt" height="626.000000pt" viewBox="0 0 626.000000 626.000000"
 preserveAspectRatio="xMidYMid meet">

<g transform="translate(0.000000,626.000000) scale(0.100000,-0.100000)"
fill="#000000" stroke="none">
<path d="M1401 4656 c-9 -11 -97 -449 -189 -941 l-8 -40 -187 -3 -187 -2 0
-40 0 -40 209 0 c155 0 211 3 219 13 5 6 40 169 77 362 62 325 74 381 75 344
1 -8 22 -303 48 -656 51 -685 52 -690 98 -665 16 8 33 72 89 321 39 171 72
311 75 311 3 0 22 -95 42 -212 22 -123 44 -218 52 -226 16 -16 56 -8 56 11 1
7 13 99 28 206 l28 194 207 2 c138 1 207 -2 207 -10 1 -41 24 -161 41 -215
150 -462 673 -679 1109 -460 176 88 325 265 389 460 17 54 40 174 41 215 0 8
69 11 207 10 l207 -2 28 -203 c28 -201 35 -223 68 -217 25 4 36 43 71 250 19
108 36 197 39 197 3 0 36 -140 75 -311 71 -318 79 -338 119 -323 9 3 18 20 20
37 3 18 24 291 46 607 40 571 50 693 56 688 1 -2 32 -161 69 -353 37 -193 72
-356 77 -362 8 -10 64 -13 219 -13 l209 0 0 40 0 40 -187 2 -187 3 -92 483
c-51 266 -98 490 -105 498 -15 18 -33 18 -48 0 -7 -8 -30 -271 -60 -680 -27
-367 -51 -670 -54 -672 -2 -3 -14 37 -25 88 -74 324 -104 453 -108 460 -9 14
-54 9 -60 -7 -4 -8 -21 -97 -39 -198 -18 -100 -35 -175 -38 -167 -3 8 -10 50
-16 94 -6 43 -14 82 -17 87 -3 5 -130 9 -283 9 l-278 0 -6 -107 c-6 -113 -22
-173 -72 -273 -89 -176 -258 -311 -453 -361 -41 -10 -81 -19 -89 -19 -10 0
-13 26 -13 119 l0 119 69 21 c133 40 250 157 291 288 21 68 37 306 26 369 -7
35 -31 50 -66 39 -19 -6 -20 -15 -20 -128 0 -157 -14 -237 -52 -309 -36 -68
-86 -116 -160 -155 -48 -25 -63 -28 -158 -28 -91 0 -111 3 -155 25 -64 31
-144 112 -173 172 -29 63 -42 151 -42 295 0 113 -1 122 -20 128 -29 9 -57 -3
-64 -28 -3 -12 -4 -87 -2 -167 3 -111 9 -161 25 -212 42 -133 159 -249 293
-289 l68 -21 0 -119 c0 -93 -3 -119 -13 -119 -8 0 -48 9 -91 20 -301 77 -526
358 -526 657 l0 83 -279 0 c-179 0 -282 -4 -286 -10 -4 -6 -11 -51 -18 -100
-6 -50 -14 -90 -17 -90 -3 0 -20 84 -37 186 -18 102 -35 190 -38 195 -8 11
-52 12 -59 1 -3 -5 -33 -130 -66 -278 -34 -147 -63 -270 -65 -272 -6 -7 -15
95 -60 722 -28 382 -49 624 -56 632 -15 18 -33 18 -48 0z"/>
<path d="M3037 4381 c-74 -30 -112 -65 -146 -132 -23 -46 -31 -76 -31 -115 l0
-53 98 -3 c78 -2 97 -6 97 -18 0 -12 -19 -16 -97 -18 -89 -2 -98 -4 -98 -22 0
-18 9 -20 98 -22 78 -2 97 -6 97 -18 0 -12 -19 -16 -97 -18 -94 -3 -98 -4 -98
-25 0 -21 3 -22 86 -19 91 4 125 -8 103 -34 -8 -10 -37 -14 -100 -14 -82 0
-89 -2 -89 -20 0 -18 8 -20 98 -22 78 -2 97 -6 97 -18 0 -12 -19 -16 -97 -18
l-98 -3 0 -27 0 -27 270 3 270 3 0 24 c0 24 -2 24 -97 27 -79 2 -98 6 -98 18
0 12 19 16 98 18 89 2 97 4 97 22 0 18 -7 20 -89 20 -61 0 -92 4 -100 13 -21
26 9 37 101 37 81 0 88 2 88 20 0 18 -8 20 -97 22 -79 2 -98 6 -98 18 0 12 19
16 98 18 88 2 97 4 97 22 0 18 -9 20 -97 22 -79 2 -98 6 -98 18 0 12 19 16 98
18 l97 3 -1 52 c-1 63 -14 102 -55 160 -62 87 -206 129 -307 88z"/>
<path d="M2860 3608 c0 -166 112 -282 270 -282 157 0 259 103 268 272 l5 82
-272 0 -271 0 0 -72z"/>
<path d="M2268 1961 c-59 -19 -97 -52 -124 -107 -24 -48 -26 -63 -22 -129 9
-131 75 -195 200 -195 75 0 130 27 165 79 71 106 45 269 -52 326 -47 28 -124
40 -167 26z m135 -113 c43 -57 27 -196 -26 -233 -47 -33 -113 -12 -142 45 -19
38 -19 133 0 175 34 70 120 77 168 13z"/>
<path d="M3195 1961 c-108 -28 -167 -106 -167 -217 0 -82 29 -145 85 -182 37
-25 49 -27 138 -27 53 0 99 2 102 5 3 3 2 20 0 38 l-5 33 -57 -6 c-43 -5 -64
-2 -90 12 -73 38 -98 116 -63 195 26 60 72 83 153 75 l57 -5 6 31 c3 17 3 34
-2 39 -12 12 -122 18 -157 9z"/>
<path d="M3937 1956 c-51 -19 -75 -42 -88 -87 -10 -31 -9 -43 7 -76 16 -31 32
-44 97 -76 71 -34 77 -40 77 -67 0 -49 -46 -59 -151 -34 -23 5 -27 2 -33 -27
-3 -18 -2 -37 4 -43 5 -5 44 -11 87 -14 95 -5 143 12 173 60 46 75 14 147 -82
188 -29 12 -61 29 -70 38 -24 20 -23 49 1 62 25 13 87 13 111 0 21 -11 25 -8
34 37 7 30 5 32 -31 42 -50 14 -90 13 -136 -3z"/>
<path d="M1767 1953 c-4 -3 -7 -100 -7 -215 l0 -208 50 0 50 0 0 80 0 80 51 0
c93 0 159 58 159 142 0 45 -33 96 -75 114 -35 14 -215 20 -228 7z m193 -83
c26 -26 25 -51 -1 -84 -16 -20 -29 -26 -60 -26 l-39 0 0 65 0 65 40 0 c27 0
47 -7 60 -20z"/>
<path d="M2600 1746 l0 -216 88 0 c197 0 285 70 284 226 -1 81 -23 128 -81
169 -41 29 -48 30 -167 34 l-124 3 0 -216z m235 114 c46 -43 55 -140 18 -198
-22 -36 -73 -62 -120 -62 l-43 0 0 146 0 146 60 -4 c45 -3 66 -10 85 -28z"/>
<path d="M3500 1853 c-18 -60 -48 -156 -66 -215 l-32 -108 48 0 47 0 15 53 15
52 65 3 66 3 16 -56 17 -55 50 0 c43 0 50 2 45 18 -10 33 -107 347 -117 380
-10 32 -11 32 -73 32 l-63 0 -33 -107z m118 -52 c12 -43 22 -81 22 -85 0 -3
-20 -6 -45 -6 -28 0 -45 4 -45 12 0 23 35 158 41 158 3 0 16 -35 27 -79z"/>
<path d="M4170 1920 l0 -40 60 0 60 0 0 -175 0 -175 45 0 45 0 0 175 0 175 60
0 60 0 0 40 0 40 -165 0 -165 0 0 -40z"/>
</g>
</svg>
